/* XPM */
static char *aedf690eec9649dbbfb4fbfc2d051d78fUaBZy1H43hzBDQX[] = {
/* columns rows colors chars-per-pixel */
"32 32 14 1 ",
"  c black",
". c #070707",
"X c #090909",
"o c #0E0E0E",
"O c #101010",
"+ c #161616",
"@ c #191919",
"# c #272727",
"$ c #2A2A2A",
"% c #2D2D2D",
"& c gray19",
"* c #353535",
"= c gray24",
"- c #464646",
/* pixels */
"%  = %%X - %OX - % &  - % O  - %",
"  =+-   @-= %  -@ #  -@- O   -@ ",
" --@-   -@--%   -@%   -@-%    -@",
"X @-     O-            @        ",
" X =    .- $     X$   - X$    XX",
"X&o     OOo  & &     %#X   $ &  ",
" # X    %X %O  oX%X  .oXO=  ..%%",
"%  -   $  - % X .      O    #   ",
"  -@  O    - % O    O #  - =  - ",
" --   %     @%       o    -    -",
"X          -         .          ",
"  X   % X - X XX      .   *O   -",
" $$&   .oo+  oO %     .  +#O  - ",
"  X  %% O X Oo% oO     Oo& OOo& ",
" O    ..X   .%X - $ Oo  o oO =.o",
"       O     O   @ o     O    - ",
"       o          @#     O     @",
" o     X     X   - X      X   - ",
"oX O  o X   $ X -oO XX  o%.O - X",
" OOOo  X.O+   o.&   OXO    + &  ",
"O   XOO.%   .Oo X O+ $X @.=    X",
"      o%    % XX    O    -      ",
"      O      o      O     @   --",
"o       -   =$XO   XX    -XX -= ",
"  %  + X%- - X      =   -#.  @ X",
"%O .      O O   O. $  @.= X+#&  ",
"    %   -O* .    XOO   =.OX%   +",
"         @X%%     O     +%      ",
"-   -   ---%X      X   -        ",
" - - X -=- O      %   - X X     ",
"  + O   - X  OOo    Oo&  O     X",
"%%$   $%O      X OO   X O% OOo  "
};
