/* XPM */
static char *result[] = {
/* columns rows colors chars-per-pixel */
"32 32 13 1 ",
"  c #00130D",
". c #001F17",
"X c #002319",
"o c #003B2B",
"O c #013F2D",
"+ c #004D37",
"@ c #067337",
"# c #007352",
"$ c #0E8C2A",
"% c #10A531",
"& c #6BCC3D",
"* c #8AEE5B",
"= c None",
/* pixels */
"================================",
"================================",
"================================",
"================================",
"================================",
"================================",
"================================",
"================================",
"================================",
"================================",
"================================",
"================================",
"================================",
"============####=##=============",
"===========#**%%#**#=##=========",
"=========##@&&OOO&&*#*%#========",
"========#**@OO@O@O&&*@%#========",
"========+*&O@%%%%*&%%%@+========",
"========+OOO%**%%&&%%%@++=======",
"=======+*@@O%&&O%%&@%%OO+=======",
"=======+*&@O*&&@OO@%OOOO+=======",
"=======+&%OO%%%@&&&&O@@O++======",
"======o*%OO%&&%&&&&&&@@O@o======",
"======o%%O$&&&@&&O&&&OO@@o======",
"=======o@@O$&@@@@@O@@OO@O.======",
"=======oO@O$$$$$$$O$$OOOo=======",
"========XXOO@$$$$$O$@@O ========",
"==========XOO@OO@OO@@@O ========",
"===========XOOOXXOO@@OX=========",
"============XXX==XXXXX==========",
"================================",
"================================"
};
