/* XPM */
static char *result[] = {
/* columns rows colors chars-per-pixel */
"32 32 3 1 ",
"  c #322B28",
". c #71413B",
"X c None",
/* pixels */
"XXXXXXXXXXXXXXXXXXXXXXXXXXXXXXXX",
"XXXXXXXXXXXXXXXXXXXXXXXXXXXXXXXX",
"XXXXXXXXXXXXXXXXXXXXXXXXXXXXXXXX",
"XXXXXXXXXXXXXXXXXXXXXXXXXXXXXXXX",
"XXXXXXXXXXXXXXXXXXXXXXXXXXXXXXXX",
"XXXXXXXXXXXX   XX   XXXXXXXXXXXX",
"XXXXXXXXXX            XXXXXXXXXX",
"XXXXXXXX                XXXXXXXX",
"XXXXXXXX     ..         XXXXXXXX",
"XXXXXXX    .....   ..    XXXXXXX",
"XXXXXXX   ...  .......   XXXXXXX",
"XXXXXX   ....  . ......   XXXXXX",
"XXXXXX   .  ...........   XXXXXX",
"XXXXXX   .  ...........   XXXXXX",
"XXXXX   ..  ..........     XXXXX",
"XXXXX   ..... ........     XXXXX",
"XXXXX    . ...........     XXXXX",
"XXXXX    ...  ........     XXXXX",
"XXXXX    ...  .........    XXXXX",
"XXXXXX   ......... .  .   XXXXXX",
"XXXXXX    ..........  .   XXXXXX",
"XXXXXXX     ..........    XXXXXX",
"XXXXXXX      ......       XXXXXX",
"XXXXXXXX                 XXXXXXX",
"XXXXXXXXXXX            XXXXXXXXX",
"XXXXXXXXXXXXX        XXXXXXXXXXX",
"XXXXXXXXXXXXXXXXXXXXXXXXXXXXXXXX",
"XXXXXXXXXXXXXXXXXXXXXXXXXXXXXXXX",
"XXXXXXXXXXXXXXXXXXXXXXXXXXXXXXXX",
"XXXXXXXXXXXXXXXXXXXXXXXXXXXXXXXX",
"XXXXXXXXXXXXXXXXXXXXXXXXXXXXXXXX",
"XXXXXXXXXXXXXXXXXXXXXXXXXXXXXXXX"
};
