/* XPM */
static char *_b80c736372244fb8e38a7c0e71b855dUEcgjZyxWTuZUq8B[] = {
/* columns rows colors chars-per-pixel */
"32 32 30 1 ",
"  c None",
". c black",
"X c #350504",
"o c #2E1609",
"O c #310B19",
"+ c #310C19",
"@ c #310C1A",
"# c #320C1A",
"$ c #350F1B",
"% c #3C141E",
"& c #613231",
"* c #653533",
"= c #683734",
"- c #6E3D38",
"; c #76433D",
": c #79463F",
"> c #7B4841",
", c #CE855F",
"< c #7E8785",
"1 c #7E8886",
"2 c #7F8886",
"3 c #7F8986",
"4 c #808987",
"5 c #929992",
"6 c #9AA097",
"7 c #9DA399",
"8 c #AFB3A6",
"9 c #BFC2B4",
"0 c #C4C6B8",
"q c #BACCCE",
/* pixels */
"                                ",
"                                ",
"                                ",
"                                ",
"                                ",
"                        ...     ",
"                       ..q.     ",
"                      ..qq.     ",
"                      .qqq.     ",
"                     ..qqq.     ",
"             .....   .qqqq.     ",
"          ....000... .qqq..     ",
"          .00000006..qqqq.      ",
"          .0..00..1..qqq..      ",
"          .00.00.04..qqq.       ",
"          ..000.0011qqqq.       ",
"         ..000000.11qqq..       ",
"         .00005111oooqq..       ",
"         ..000>111>>oooo.       ",
"          .00<>>>>>;,##O.       ",
"          ..11>*>>>:O$##.       ",
"           .011081ooX...        ",
"           .0..17..1..          ",
"           .0......1.           ",
"          ..0..  ..1.           ",
"          .>>=.  .89.           ",
"          .>>#.  .01.           ",
"          .>>#. ..0..           ",
"          .###. .&&-.           ",
"          ..... .#%#.           ",
"                .##&.           ",
"                .#&#.           "
};
