/* XPM */
static char *ddc1dd76d23f426882a3e12d6c3a1bc4qKXWf6hlYCI9Xe5l[] = {
/* columns rows colors chars-per-pixel */
"32 32 123 2 ",
"   c #000000",
".  c #010508",
"X  c #05090C",
"o  c #050D14",
"O  c #0A0F12",
"+  c #091114",
"@  c #0E171C",
"#  c #091722",
"$  c #0B1B25",
"%  c #0D1D2A",
"&  c #121E25",
"*  c #0D202F",
"=  c #14222B",
"-  c #0D2132",
";  c #09273F",
":  c #0A2A3F",
">  c #102B3E",
",  c #192D38",
"<  c #0A2A42",
"1  c #0A2F49",
"2  c #0B324C",
"3  c #16364F",
"4  c #0C3552",
"5  c #0B3C5D",
"6  c #133752",
"7  c #223B49",
"8  c #20455F",
"9  c #294658",
"0  c #2D4C5E",
"q  c #0B476C",
"w  c #0C496E",
"e  c #154365",
"r  c #10466A",
"t  c #17496E",
"y  c #184A6D",
"u  c #0E4971",
"i  c #104B73",
"p  c #194F75",
"a  c #114F78",
"s  c #13527D",
"d  c #1E547A",
"f  c #2E4F62",
"g  c #2F5266",
"h  c #345973",
"j  c #3B657B",
"k  c #165682",
"l  c #185783",
"z  c #175A85",
"x  c #195985",
"c  c #1A5D8B",
"v  c #215C86",
"b  c #235E88",
"n  c #1A608F",
"m  c #1C6393",
"M  c #1F6799",
"N  c #1F699A",
"B  c #20638E",
"V  c #29678E",
"C  c #266590",
"Z  c #266A95",
"A  c #226B9E",
"S  c #31749E",
"D  c #246EA4",
"F  c #2571A5",
"G  c #2876A7",
"H  c #2474A9",
"J  c #2878AD",
"K  c #3476A1",
"L  c #3378A5",
"P  c #3B7FAC",
"I  c #2B7DB4",
"U  c #2D7FB9",
"Y  c #406C85",
"T  c #406D8C",
"R  c #407392",
"E  c #3B81AD",
"W  c #2E81BA",
"Q  c #3C86B5",
"!  c #3284BB",
"~  c #4E84A6",
"^  c #4285AF",
"/  c #4485B0",
"(  c #4689B4",
")  c #498BB6",
"_  c #408EBF",
"`  c #4D92BD",
"'  c #5592B6",
"]  c #5795BA",
"[  c #2E85C1",
"{  c #3086C3",
"}  c #3289C6",
"|  c #328DCC",
" . c #3B8FCD",
".. c #3691CF",
"X. c #3C92CD",
"o. c #3592D1",
"O. c #3C95D1",
"+. c #4791C2",
"@. c #4596CC",
"#. c #4F9BCC",
"$. c #5699C3",
"%. c #579BC4",
"&. c #529CCB",
"*. c #509CCD",
"=. c #529CCC",
"-. c #5B9FCB",
";. c #5B9FCC",
":. c #469BD1",
">. c #4998D0",
",. c #5FA3CA",
"<. c #5FA4CB",
"1. c #59A0CC",
"2. c #5DA4CE",
"3. c #4FA1D3",
"4. c #50A0D3",
"5. c #5CA5D2",
"6. c #60A5CE",
"7. c #61A6D0",
"8. c #64A7D1",
"9. c #63A8D1",
"0. c #66ABD2",
"q. c #64AFD9",
"w. c #68B1DE",
/* pixels */
"                                                                ",
"                    . 0 q.6.7.6.6.6.6.q.0 .                     ",
"                  = w.3.| | | | | | | | 4.w.&                   ",
"            X o ! O.<.^ k x x x z l A | | } 5.] O X             ",
"            v ..2.$.x x x k k s k k k x x x [ X.7.Y             ",
"        * d E *.P S x k a u u u u w u a k x A G >./ j =         ",
"        6 | *.7.B x x s u u u u s } H w s x x c | @.6.7         ",
"    % ..:.0.K k x x x s u w i } o.....O.D x x x k A o.4.9.=     ",
"    % | @.0.K x x k w u w I o.4 1 q m o.o.o.m x z D o.&.,.&     ",
"    % | @.0.K x x k w u u 4 < < < < 4 q H ..M c x A o.&.,.&     ",
"    % @.+./ Z x F A w u u 4 < < < < 4 q n F } } x m J _ #.h 9 X ",
"o C L 7.( x x x } [ w u u 4 < < < < 4 u u u { } x x x I ..1.] + ",
"o W X.8.) k I | s u u u u 4 : % % < 4 u u u } } x z x I ..1.] + ",
"o W X.0.) k I ..s u w 5 < < < % % < < < 5 w q u x x x I o.;.] + ",
"o W X.0.) k I ..s u w 5 < - % % % % - < 5 u [ [ z x x I ..1.] + ",
"o W X.9.) k I ..s u w 5 < - % % % % - < 5 w u w x x x I ..1.] + ",
"o W X.9.) k I ..s u w 5 : - % % % % - < 5 w u i x x x I ..1.] + ",
"o ! X.9.) k I | ..[ u 5 < - % % % % - < 5 w u u z x x I ..1.] + ",
"o W X.9.) k I ..| W u 5 < - % % % % - < 5 w u u x x x I ..1.] + ",
"o W X.9.( x x x W W s r 6 1 < % % < < < 5 u { } x x x I ..1.] + ",
"o U  .7.( x x x u s J W | y < - - < 4 u u u { } x z x I ..;.] O ",
". > 8 6.( x x x s s u s n 5 < < < < 4 u u u { } x x z I ..-.] + ",
"    $ | @.7.K x x k w u u 4 < < < < 4 q F | m c x A | *.,., +   ",
"    $ | @.0.K x x k w u u 2 < < < ; p o.o.o.m x x A o.*.,.&     ",
"    % | @.0.L x x k w w u w q 1 2 w w u w w k x x A o.&.,.&     ",
"    # F Q 5.E Z x x z s w F U t e k s u s x x x m G O.) ~ &     ",
"        3 | *.6.B x x s u u u m N N c u s x x n ..@.6.7         ",
"        o $ V O.%.` z x k u u u u u u k x x W } 5.R & X         ",
"            b o.2.$.k k x x x x x z x k k k { X.q.T             ",
"                ! O.0.( k x x x x x A | ....5.'                 ",
"                  # I ! X.X.O.X.X.X.X.X.` ' @                   ",
"                      = g 0 f f f f 0 g =                       "
};
