/* XPM */
static char *_3a277641bf54569ef465fc4670ce253wXXnsMm84hgI3WGp[] = {
/* columns rows colors chars-per-pixel */
"32 32 18 1 ",
"  c #1B1B1B",
". c #222222",
"X c gray17",
"o c #2F2F2F",
"O c gray23",
"+ c #3E3E3E",
"@ c gray29",
"# c #4E4E4E",
"$ c #555555",
"% c #626262",
"& c #686868",
"* c gray48",
"= c #818181",
"- c gray51",
"; c gray64",
": c gray67",
"> c gray80",
", c gray84",
/* pixels */
"@X********%%.@@@@@@@@@O.********",
"@X*******%#.X@@@@@@@@OO.*******%",
"@XX*%%***+ .X@@@@@@@@OOX*******%",
"@@X*%%%*%% @@@@@@@OOOOOX******%%",
"@@@XXX%%##.@@@OOOOOOO@OOX****%%%",
"@@@@@@X%##.@OOOOOOOOOOOOX***%%%%",
"@@@@@@OX%.XXX@XX.OXXXXXX**%%=%.X",
"@@@@@@Oo.X@@XX@@XX>>>>>.%%%%.$;;",
"@@@@@OO.@@@@@@@@@XX>>>>X..*XX,:;",
"@@@@OO.X@@@@@@@@@@X>>>>>;XX>>>;=",
"@O@OO.X@@@@@@@@@@@X>>>>>>>>>>>;;",
"OOOOOX@@@@@@@@@@@OX>>>>>>>>>>>;;",
"X.OO.@@@@@@@@@@@OOX;;;;;;;>>>>;;",
">.OOXXXX@O@@OOOOOXXXX...;;;;>>;;",
">>XX>>>XX@O.OOOOOX******o;;;;;;=",
">>>>>>>;;XXXXXXXXX*******o.;;;==",
">>>>>>>;XXX@@@@@@@X*******XX..*;",
">>>>>>;;XX@@@@@@@@@X******#%XXXo",
">>>>>;;X>>X@@@@@@@@@X****%#X>>>;",
">>>>;&X>>>X@@@@@@@@@OX**%# >>>>;",
">;;;==X>>>XX@@@@@@OOo.####X>>>>;",
";;&&=X>>>>;.OOOOoooooX###.>>>>>;",
"X.XXXX>>>;;XXXX.oo XXXX.#.>>>>>;",
">>>>Xo>>>;=X***%. X>>>>XXX>>>>>;",
">>>>>>X>;==X*****X>>>>>oX>>>>>>;",
">>>>>>X.;=.X*****X>>>>>oX;;;;;>;",
">>>>>>>XXXX******X>>>>>>.;;;;;;;",
">>>>>>>>;X*******X>>>>>>XX....;;",
">>>>>>>>;X*******X>>>>>>>>>>>.;;",
">>>>>>;;;o*******X>>>>>>>>>>>=.;",
">;>;;;===o*******XX;>>;;;>>;;= ;",
";-=;;===*X********X;;;;;;;;;== ;"
};
