/* XPM */
static char *result[] = {
/* columns rows colors chars-per-pixel */
"32 32 5 1 ",
"  c #22BBD2",
". c #20D6C7",
"X c #63E9D1",
"o c #A6FCDB",
"O c white",
/* pixels */
"............Xo..  ..  XXo.......",
"...........X...........  oX.....",
"..........X................Xo...",
"XoXXooXXXXX..................OoX",
"...      X...................XX ",
"......... X.................X  .",
"..........X................X....",
"..........oOXXXoX........XX.....",
".........oXX..   XooXXXooo......",
".......XXX...........    Xo.....",
"......X...................Xo....",
"XXXooXo....................XXXXo",
"    Xo...................oXX... ",
"....  o..............ooXX.......",
"......X............XX   ........",
".......X..........X.............",
".......XoX......XX..............",
".....XXXXXXooXoX................",
".XooX..     Xo  ................",
"X........... XX..............XoX",
"...............XX..........XX   ",
"................oX.......Xo.....",
"...............oooXXoXXXoo......",
"..............XX.   .    Xo.....",
"............XX...........  XX...",
"..........Xo...............  Xo.",
"oXXXXoooXoo...................Xo",
" ...     XXo..................oo",
".........  XX................XX ",
"............XX..............XX..",
".............Xo...........XX....",
".............XooXXXXoXXXXo......"
};
