/* XPM */
static char *c236930b77494f108f80e7d5bf4c9133bhIcSI2yETtZVaFZ[] = {
/* columns rows colors chars-per-pixel */
"32 32 17 1 ",
"  c None",
". c black",
"X c #191919",
"o c gray35",
"O c #705E56",
"+ c #7B6860",
"@ c #B63333",
"# c #BA917E",
"$ c #CF9D86",
"% c #E1AA91",
"& c #E1AD95",
"* c #D0D0D0",
"= c #FCD6C4",
"- c #FFE0D2",
"; c #FFEDE5",
": c #FFF2EC",
"> c white",
/* pixels */
"                                ",
"                                ",
"                                ",
"             OOOOOO             ",
"           OO=;;;;=OO           ",
"          O;;;;;;;;;;O          ",
"          O;;;;;;;;;;O          ",
"         O;;;;;;;;;;;;O         ",
"         O;;;;;;;;;;;;O         ",
"         O=;;;;;;;;;;=O         ",
"         O==;;;;;;;;==O         ",
"         O$==========$O         ",
"         O%$========$%O         ",
"         O%%========%%O         ",
"          O%=..==..=%O          ",
"           O;>X==X>;O           ",
"           O=>o;;o>=O           ",
"            O$;##;$O            ",
"           O;OO@@OO;O           ",
"          O&==&&&&==&O          ",
"          O;========;O          ",
"         O&&==&==&==&&O         ",
"         O==&==&&==&==O         ",
"         O&=O======O=&O         ",
"          OO+-=&&=-+OO          ",
"            o*::::*o            ",
"            Ooo::ooO            ",
"            O=-oo-=O            ",
"           O==O  O==O           ",
"           O&=O  O=&O           ",
"            OO    OO            ",
"                                "
};
