/* XPM */
static char *aacb08df01a44defbf6e9e788bb8eb8cUm0BVcR6bSvPzHDp[] = {
/* columns rows colors chars-per-pixel */
"32 32 19 1 ",
"  c None",
". c black",
"X c #191919",
"o c #5F4F3F",
"O c #594A43",
"+ c gray35",
"@ c #705E56",
"# c #7B6860",
"$ c #B63333",
"% c #CF9D86",
"& c #E1AA91",
"* c #E1AD95",
"= c #D0D0D0",
"- c #FCD6C4",
"; c #FFE0D2",
": c #FFEDE5",
"> c #FFF2EC",
", c #FFF7F4",
"< c white",
/* pixels */
"                                ",
"                                ",
"                                ",
"                                ",
"              @@@@              ",
"            @@,,,,@             ",
"           @%-::::,@            ",
"          @%--:::::,@           ",
"          @%---:::::,@          ",
"         @%-----::::,@          ",
"         @%------:::,@          ",
"         @%---@---::,@          ",
"         @%--@&%---:,@          ",
"          @%-@&&----@           ",
"           @%-@&--..@           ",
"            @%---:<X:@          ",
"            @%----<+-@          ",
"             @-%---%@           ",
"              @-%%@$            ",
"             O:-#O              ",
"             #--#O              ",
"            O#**#-O             ",
"            O@--@*O             ",
"            O@*-@-O             ",
"            O;@@-;O             ",
"             +=>=+              ",
"             +>>+               ",
"            O;++                ",
"            O;;o                ",
"            O;*O                ",
"             OO                 ",
"                                "
};
