/* XPM */
static char *c0085a79a9ca4a52e0637775eeb7719eWExWfLx9qaoHiz6N[] = {
/* columns rows colors chars-per-pixel */
"32 32 13 1 ",
"  c None",
". c gray35",
"X c #705E56",
"o c #7B6860",
"O c #9B7462",
"+ c #CF9D86",
"@ c #E1AA91",
"# c #E1AD95",
"$ c #D0D0D0",
"% c #FCD6C4",
"& c #FFE0D2",
"* c #FFEDE5",
"= c #FFF2EC",
/* pixels */
"                                ",
"                                ",
"                                ",
"             XXXXXX             ",
"           XX%****%XX           ",
"          X**********X          ",
"          X**********X          ",
"         X************X         ",
"         X************X         ",
"         X%**********%X         ",
"         X@%********%@X         ",
"         X@@%%%%%%%%@@X         ",
"         X@@@%%%%%%@@@X         ",
"         X@@@@@%%@@@@@X         ",
"          X+@@@@@@@@+X          ",
"           X@@@@@@@@X           ",
"           X+@@@@@@+X           ",
"            XO@@@@OX            ",
"           X*+O++O+*X           ",
"          X#%%%%%%%%#X          ",
"          X*%%%%%%%%*X          ",
"         X##%++%%++%##X         ",
"         X%%o%%%%%%o%%X         ",
"         X#%o#%%%%#o%#X         ",
"          XXo#%%%%#oXX          ",
"            .$====$.            ",
"            X..==..X            ",
"            X%&..&%X            ",
"           X%%X  X%%X           ",
"           X#%X  X%#X           ",
"            XX    XX            ",
"                                "
};
