/* XPM */
static char *_11f615a7b9843ececab310692e7ba4epj6l3L5EZn970tFY[] = {
/* columns rows colors chars-per-pixel */
"32 32 8 1 ",
"  c None",
". c #322A28",
"X c #322B28",
"o c #332B28",
"O c #71413B",
"+ c #BB7547",
"@ c #DBA463",
"# c #F4D29C",
/* pixels */
"                                ",
"              XX                ",
"             X##X               ",
"            X@@##X              ",
"           X#@#@@#X             ",
"          X@#@#@@@@X            ",
"         X@#@@#@+@+@X           ",
"        X@#+@@##@@@+@X          ",
"        X++@@###@+@+@X          ",
"        X@+@@###@+@@XX          ",
"        XXXX+###@@+XXX          ",
"        XXOXXX++XXXXXX          ",
"XXXXXXXXXXOOXOOOOOX+XX          ",
"@@##@@#@#X++XOXXOO++XX          ",
"OOOOOOOOOX++OX##XO++XX          ",
"++OO+++++XO@OX##XO+++X          ",
"OO++OOXXXXX@OX@#X++O+X          ",
"XXXXXXXXX+X@OX@#X@+O+X          ",
"        X+O@@X@#X@+O+X          ",
"        X+XX+X@#X+@OOX          ",
"        X+XO+X@@X+@OOX          ",
"        XOXO+X@@X+@OOX          ",
"XXXXXXXXXXXOOX#@X+@XOX          ",
"@@@#@@#@@XXOOX#@X+@XOX          ",
"OOOO+++++XOXOX#@X+OXOX          ",
"+++++OOOOXOXOX#@XOOXOX          ",
"OOOOOOXXXXXXOX@#XOXXOX          ",
"XXXXXXXXXXXXOX@#XOXOXX          ",
"         XXXOX+#XOXOX           ",
"         XXXXX+@XXXXX           ",
"          XoXX+@XXXX            ",
"             X++X               "
};
