/* XPM */
static char *_8e5c6864e924a2bf03ba6934ecd556a8obco2dD0aDwkwbk[] = {
/* columns rows colors chars-per-pixel */
"32 32 18 1 ",
"  c None",
". c #261F1B",
"X c #261F1C",
"o c #2D2724",
"O c #322B28",
"+ c #332B28",
"@ c #64342F",
"# c #633A35",
"$ c #71413B",
"% c #A3673F",
"& c #AD683A",
"* c #BB7547",
"= c #BF8F57",
"- c #CD9756",
"; c #DBA463",
": c #D5B789",
"> c #E6C48F",
", c #F4D29C",
/* pixels */
"                                ",
"              OO                ",
"             O,,O               ",
"            o=;,,O              ",
"           O:=:;;,O             ",
"          O=:=:=;;;O            ",
"         X-,==:=%;*;O           ",
"        O->&;;:,;;;*;O          ",
"        X&&-->,:;*;*;O          ",
"        O;&=->>>=%;;OO          ",
"        OOXo%:::==%oOO          ",
"        O$$ooo*ooOOOOO          ",
"        O$$@X#%*OO**OO          ",
"        O$**O*%%OO**OO          ",
"        OO**$;##%O**OO          ",
"        OO$;$;o#%o***O          ",
"        X*O;$;$#%**$*O          ",
"        O*O;$;O$*=*$*O          ",
"        O*@;;;O$*;%$*O          ",
"        O*XX*&XO**;#$O          ",
"        O*O@&;@X$*;##O          ",
"        O$O$&-&o#&;$#o          ",
"        O$O$$--o#%=o#o          ",
"        O$O$$&-X#%;O$O          ",
"        X$@O$*-XX%#O$O          ",
"        O@@X$**XX@#o$O          ",
"        O@@X$**$X$oooO          ",
"        OO@X@*$$O$o$OO          ",
"         OOO@@@OO$O#o           ",
"         OOOO$XXXOOOo           ",
"          O++OX.XXOO            ",
"                                "
};
