/* XPM */
static char *_507c985a6364689c0a540d7c2e38724fjy9V0uSyEoj1Us4[] = {
/* columns rows colors chars-per-pixel */
"32 32 7 1 ",
"  c None",
". c #322B28",
"X c #332B28",
"o c #71413B",
"O c #BB7547",
"+ c #DBA463",
"@ c #F4D29C",
/* pixels */
"                                ",
"              ..                ",
"             .@@.               ",
"            .++@@.              ",
"           .@+@++@.             ",
"          .+@+@++++.            ",
"         .+@++@+O+O+.           ",
"        .+@O++@@+++O+.          ",
"        .OO++@@@+O+O+.          ",
"        .+O++@@@+O++..          ",
"        ....O@@@++O...          ",
"        ..o...OO......          ",
"        ..oo.ooooo.O..          ",
"        ..OOoo..ooOO..          ",
"        ..OOo.@@.oOO..          ",
"        ..o+o.@@.oOOO.          ",
"        .O.+o.+@.OOoO.          ",
"        .O.+o.+@.+OoO.          ",
"        .Oo++.+@.+OoO.          ",
"        .O..O.+@.O+oo.          ",
"        .O.oO.++.O+oo.          ",
"        .o.oO.++.O+oo.          ",
"        .o.oo.@+.O+.o.          ",
"        .o.oo.@+.O+.o.          ",
"        .oo.o.@+.Oo.o.          ",
"        ..o.o.@+.oo.o.          ",
"        ....o.+@.o..o.          ",
"        ....o.+@.o.o..          ",
"         ...o.O@.o.o.           ",
"         .....O+.....           ",
"          .XX.O+....            ",
"             .OO.               "
};
