/* XPM */
static char *_feb5cc288574642b73b547e137da7e0xamS5l8McEDpfoVF[] = {
/* columns rows colors chars-per-pixel */
"32 32 7 1 ",
"  c None",
". c #322A28",
"X c #322B28",
"o c #71413B",
"O c #BB7547",
"+ c #DBA463",
"@ c #F4D29C",
/* pixels */
"             XOOX               ",
"             XXXX               ",
"             X@@X               ",
"            X++@@X              ",
"           X@+@++@X             ",
"          X+@+@++++X            ",
"         X+@++@+O+O+X           ",
"        X+@O++@@+++O+X          ",
"        XOO++@@@+O+O+X          ",
"        X+O++@@@+O++XX          ",
"        XXXXO@@@++OXXX          ",
"        XXoXXXOOXXXXXX          ",
"        XXooXoooooXOXX          ",
"        XXOOooXXooOOXX          ",
"        XXOOoX@@XoOOXX          ",
"        XXo+oX@@XoOOOX          ",
"        XOX+oX+@XOOoOX          ",
"        XOX+oX+@X+OoOX          ",
"        XOo++X+@X+OoOX          ",
"        XOXXOX+@XO+ooX          ",
"        XOXoOX++XO+ooX          ",
"        XoXoOX++XO+ooX          ",
"        XoXooX@+XO+XoX          ",
"        XoXooX@+XO+XoX          ",
"        XooXoX@+XOoXoX          ",
"        XXoXoX@+XooXoX          ",
"        XXXXoX+@XoXXoX          ",
"        XXXXoX+@XoXoXX          ",
"         XXXoXO@XoXoX           ",
"         XXXXXO+XXXXX           ",
"          XXXXO+XXXX            ",
"             XOOX               "
};
