/* XPM */
static char *result[] = {
/* columns rows colors chars-per-pixel */
"32 32 6 1 ",
"  c black",
". c #F76A22",
"X c #F77622",
"o c #FEAE34",
"O c #FEE761",
"+ c None",
/* pixels */
"++++++++++++++++++++++++++++++++",
"++++++++++++++++++++++++++++++++",
"++++++++++++++++++++++++++++++++",
"++++++++++++++++++++++++++++++++",
"++++++++++++          ++++++++++",
"++++++++++++          ++++++++++",
"++++++++++  OOOOOOOOOO  ++++++++",
"++++++++++  OOOOOOOOOO  ++++++++",
"++++++++  XXooooooooooOO  ++++++",
"++++++++  XXooooooooooOO  ++++++",
"++++++  XXooooOOOOOOooooOO  ++++",
"++++++  XXooooOOOOOOooooOO  ++++",
"++++++  XXoo..ooooooOOooOO  ++++",
"++++++  XXoo..ooooooOOooOO  ++++",
"++++++  XXoo..ooooooOOooOO  ++++",
"++++++  XXoo..ooooooOOooOO  ++++",
"++++++  XXoo..ooooooOOooOO  ++++",
"++++++  XXoo..ooooooOOooOO  ++++",
"++++++  XXoo..ooooooOOooOO  ++++",
"++++++  XXoo..ooooooOOooOO  ++++",
"++++++  XXoooo......ooooOO  ++++",
"++++++  XXoooo......ooooOO  ++++",
"++++++++  XXooooooooooOO  ++++++",
"++++++++  XXooooooooooOO  ++++++",
"++++++++++  XXXXXXXXXX  ++++++++",
"++++++++++  XXXXXXXXXX  ++++++++",
"++++++++++++          ++++++++++",
"++++++++++++          ++++++++++",
"++++++++++++++++++++++++++++++++",
"++++++++++++++++++++++++++++++++",
"++++++++++++++++++++++++++++++++",
"++++++++++++++++++++++++++++++++"
};
