/* XPM */
static char *_becc67000d7406b8d91c89995f5cf23YQi2y5ZLbo3ZDAHS[] = {
/* columns rows colors chars-per-pixel */
"32 32 6 1 ",
"  c None",
". c black",
"X c #F76A22",
"o c #F77622",
"O c #FEAE34",
"+ c #FEE761",
/* pixels */
"                                ",
"                                ",
"                                ",
"                                ",
"              ....              ",
"              ....              ",
"            ..oo++..            ",
"            ..oo++..            ",
"          ..ooooOO++..          ",
"          ..ooooOO++..          ",
"        ..oooooo++OOOO..        ",
"        ..oooooo++OOOO..        ",
"        ..ooooooXX++OO..        ",
"        ..ooooooXX++OO..        ",
"        ..ooooooXX++OO..        ",
"        ..ooooooXX++OO..        ",
"        ..ooooooXX++OO..        ",
"        ..ooooooXX++OO..        ",
"        ..ooooooXX++OO..        ",
"        ..ooooooXX++OO..        ",
"        ..ooooooXXOOOO..        ",
"        ..ooooooXXOOOO..        ",
"          ..ooooOOOO..          ",
"          ..ooooOOOO..          ",
"            ..oooo..            ",
"            ..oooo..            ",
"              ....              ",
"              ....              ",
"                                ",
"                                ",
"                                ",
"                                "
};
