/* XPM */
static char *_0525d8628424712c709cee8985405cdLSREpcONljSBQN0K[] = {
/* columns rows colors chars-per-pixel */
"32 32 5 1 ",
"  c None",
". c black",
"X c #F77622",
"o c #FEAE34",
"O c #FEE761",
/* pixels */
"                                ",
"                                ",
"                                ",
"                                ",
"            ......              ",
"            ......              ",
"          ..OOOOOO..            ",
"          ..OOOOOO..            ",
"          ..oooooo..            ",
"          ..oooooo..            ",
"          ..XXXXXX..            ",
"          ..XXXXXX..            ",
"          ..oooooo..            ",
"          ..oooooo..            ",
"          ..oooooo..            ",
"          ..oooooo..            ",
"          ..XXXXXX..            ",
"          ..XXXXXX..            ",
"          ..XXXXXX..            ",
"          ..XXXXXX..            ",
"          ..XXXXXX..            ",
"          ..XXXXXX..            ",
"          ..XXXXXX..            ",
"          ..XXXXXX..            ",
"          ..XXXXXX..            ",
"          ..XXXXXX..            ",
"            ......              ",
"            ......              ",
"                                ",
"                                ",
"                                ",
"                                "
};
