/* XPM */
static char *_b9883c905744ab9e19ba84df01c9d7fddqT8bD3IaQxzSqH[] = {
/* columns rows colors chars-per-pixel */
"32 32 6 1 ",
"  c None",
". c black",
"X c #F76A22",
"o c #F77622",
"O c #FEAE34",
"+ c #FEE761",
/* pixels */
"                                ",
"                                ",
"                                ",
"                                ",
"          ............          ",
"          ............          ",
"        ..++++++++++++..        ",
"        ..++++++++++++..        ",
"      ..ooOOOOOOOOOOOO++..      ",
"      ..ooOOOOOOOOOOOO++..      ",
"    ..ooOOOO++++++++OOOO++..    ",
"    ..ooOOOO++++++++OOOO++..    ",
"    ..ooOOXXOOOOOOOO++OO++..    ",
"    ..ooOOXXOOOOOOOO++OO++..    ",
"    ..ooOOXXOOOOOOOO++OO++..    ",
"    ..ooOOXXOOOOOOOO++OO++..    ",
"    ..ooOOXXOOOOOOOO++OO++..    ",
"    ..ooOOXXOOOOOOOO++OO++..    ",
"    ..ooOOXXOOOOOOOO++OO++..    ",
"    ..ooOOXXOOOOOOOO++OO++..    ",
"    ..ooOOOOXXXXXXXXOOOO++..    ",
"    ..ooOOOOXXXXXXXXOOOO++..    ",
"      ..ooOOOOOOOOOOOO++..      ",
"      ..ooOOOOOOOOOOOO++..      ",
"        ..oooooooooooo..        ",
"        ..oooooooooooo..        ",
"          ............          ",
"          ............          ",
"                                ",
"                                ",
"                                ",
"                                "
};
