/* XPM */
static char *result[] = {
/* columns rows colors chars-per-pixel */
"32 32 6 1 ",
"  c black",
". c #F76A22",
"X c #F77622",
"o c #FEAE34",
"O c #FEE761",
"+ c None",
/* pixels */
"++++++++++++++++++++++++++++++++",
"++++++++++++++++++++++++++++++++",
"++++++++++++++++++++++++++++++++",
"++++++++++++++++++++++++++++++++",
"++++++++++++        ++++++++++++",
"++++++++++++        ++++++++++++",
"++++++++++  XXXXOOOO  ++++++++++",
"++++++++++  XXXXOOOO  ++++++++++",
"++++++++  XXXXooooooOO  ++++++++",
"++++++++  XXXXooooooOO  ++++++++",
"++++++  XXXXooooOOooooOO  ++++++",
"++++++  XXXXooooOOooooOO  ++++++",
"++++++  XXXXoo..ooOOooOO  ++++++",
"++++++  XXXXoo..ooOOooOO  ++++++",
"++++++  XXXXoo..ooOOooOO  ++++++",
"++++++  XXXXoo..ooOOooOO  ++++++",
"++++++  XXXXoo..ooOOooOO  ++++++",
"++++++  XXXXoo..ooOOooOO  ++++++",
"++++++  XXXXoo..ooOOooOO  ++++++",
"++++++  XXXXoo..ooOOooOO  ++++++",
"++++++  XXXXoooo..ooooOO  ++++++",
"++++++  XXXXoooo..ooooOO  ++++++",
"++++++++  XXXXooooooOO  ++++++++",
"++++++++  XXXXooooooOO  ++++++++",
"++++++++++  XXXXXXXX  ++++++++++",
"++++++++++  XXXXXXXX  ++++++++++",
"++++++++++++        ++++++++++++",
"++++++++++++        ++++++++++++",
"++++++++++++++++++++++++++++++++",
"++++++++++++++++++++++++++++++++",
"++++++++++++++++++++++++++++++++",
"++++++++++++++++++++++++++++++++"
};
