/* XPM */
static char *bc83631dec4749ccd79878a3d6e28cd0dKK68fxmBl0qJNYE[] = {
/* columns rows colors chars-per-pixel */
"32 32 6 1 ",
"  c None",
". c black",
"X c #F76A22",
"o c #F77622",
"O c #FEAE34",
"+ c #FEE761",
/* pixels */
"                                ",
"                                ",
"                                ",
"                                ",
"            ........            ",
"            ........            ",
"          ..++++oooo..          ",
"          ..++++oooo..          ",
"        ..OOOOOO++oooo..        ",
"        ..OOOOOO++oooo..        ",
"      ..OOOO++OOOO++oooo..      ",
"      ..OOOO++OOOO++oooo..      ",
"      ..OOXXOO++OO++oooo..      ",
"      ..OOXXOO++OO++oooo..      ",
"      ..OOXXOO++OO++oooo..      ",
"      ..OOXXOO++OO++oooo..      ",
"      ..OOXXOO++OO++oooo..      ",
"      ..OOXXOO++OO++oooo..      ",
"      ..OOXXOO++OO++oooo..      ",
"      ..OOXXOO++OO++oooo..      ",
"      ..OOOOXXOOOO++oooo..      ",
"      ..OOOOXXOOOO++oooo..      ",
"        ..OOOOOO++oooo..        ",
"        ..OOOOOO++oooo..        ",
"          ..OOOOoooo..          ",
"          ..OOOOoooo..          ",
"            ........            ",
"            ........            ",
"                                ",
"                                ",
"                                ",
"                                "
};
