/* XPM */
static char *_4636df383594ba7d91086fbbfb744e53siGKCriDmV3P329[] = {
/* columns rows colors chars-per-pixel */
"32 32 6 1 ",
"  c None",
". c black",
"X c #F76A22",
"o c #F77622",
"O c #FEAE34",
"+ c #FEE761",
/* pixels */
"                                ",
"                                ",
"                                ",
"                                ",
"              ......            ",
"              ......            ",
"            ..oooo++..          ",
"            ..oooo++..          ",
"          ..ooooOOOO++..        ",
"          ..ooooOOOO++..        ",
"        ..ooooOOOOXXOO++..      ",
"        ..ooooOOOOXXOO++..      ",
"        ..ooooOOXX++OO++..      ",
"        ..ooooOOXX++OO++..      ",
"        ..ooooOOXX++OO++..      ",
"        ..ooooOOXX++OO++..      ",
"        ..ooooOOXX++OO++..      ",
"        ..ooooOOXX++OO++..      ",
"        ..ooooOOXX++OO++..      ",
"        ..ooooOOXX++OO++..      ",
"        ..ooooOOOOXXOO++..      ",
"        ..ooooOOOOXXOO++..      ",
"          ..ooooOOOO++..        ",
"          ..ooooOOOO++..        ",
"            ..oooooo..          ",
"            ..oooooo..          ",
"              ......            ",
"              ......            ",
"                                ",
"                                ",
"                                ",
"                                "
};
