/* XPM */
static char *c66946a675cd432f87b9a537ecb0a330PIJNgJxXrtVfU4tu[] = {
/* columns rows colors chars-per-pixel */
"32 32 5 1 ",
"  c None",
". c black",
"X c #F77622",
"o c #FEAE34",
"O c #FEE761",
/* pixels */
"                                ",
"                                ",
"                                ",
"                                ",
"            ......              ",
"            ......              ",
"          ..XXXXOO..            ",
"          ..XXXXOO..            ",
"          ..XXXXOO..            ",
"          ..XXXXOO..            ",
"        ..XXXXXXoooo..          ",
"        ..XXXXXXoooo..          ",
"        ..XXXXXXOOoo..          ",
"        ..XXXXXXOOoo..          ",
"        ..XXXXXXOOoo..          ",
"        ..XXXXXXOOoo..          ",
"        ..XXXXXXOOoo..          ",
"        ..XXXXXXOOoo..          ",
"        ..XXXXXXOOoo..          ",
"        ..XXXXXXOOoo..          ",
"        ..XXXXXXoooo..          ",
"        ..XXXXXXoooo..          ",
"          ..XXXXoo..            ",
"          ..XXXXoo..            ",
"          ..XXXXXX..            ",
"          ..XXXXXX..            ",
"            ......              ",
"            ......              ",
"                                ",
"                                ",
"                                ",
"                                "
};
