/* XPM */
static char *_8f2f8730c7a4f09cb69e30cce743763w83eeCmKCEjRdHuE[] = {
/* columns rows colors chars-per-pixel */
"32 32 6 1 ",
"  c None",
". c black",
"X c #F76A22",
"o c #F77622",
"O c #FEAE34",
"+ c #FEE761",
/* pixels */
"                                ",
"                                ",
"                                ",
"                                ",
"            ......              ",
"            ......              ",
"          ..++oooo..            ",
"          ..++oooo..            ",
"          ..OOoooo..            ",
"          ..OOoooo..            ",
"        ..++OOoooooo..          ",
"        ..++OOoooooo..          ",
"        ..XXOOoooooo..          ",
"        ..XXOOoooooo..          ",
"        ..XXOOoooooo..          ",
"        ..XXOOoooooo..          ",
"        ..XXOOoooooo..          ",
"        ..XXOOoooooo..          ",
"        ..XXOOoooooo..          ",
"        ..XXOOoooooo..          ",
"        ..XXOOoooooo..          ",
"        ..XXOOoooooo..          ",
"          ..oooooo..            ",
"          ..oooooo..            ",
"          ..oooooo..            ",
"          ..oooooo..            ",
"            ......              ",
"            ......              ",
"                                ",
"                                ",
"                                ",
"                                "
};
