/* XPM */
static char *_118c4f25e204359d5aa3fc22e6ac27c8AXSu45tlSnFjoTE[] = {
/* columns rows colors chars-per-pixel */
"32 32 6 1 ",
"  c None",
". c black",
"X c #F76A22",
"o c #F77622",
"O c #FEAE34",
"+ c #FEE761",
/* pixels */
"                                ",
"                                ",
"                                ",
"                                ",
"            ......              ",
"            ......              ",
"          ..++oooo..            ",
"          ..++oooo..            ",
"        ..++OO++oooo..          ",
"        ..++OO++oooo..          ",
"      ..++OO++OOoooooo..        ",
"      ..++OO++OOoooooo..        ",
"      ..OOXXOO++oooooo..        ",
"      ..OOXXOO++oooooo..        ",
"      ..OOXXOO++oooooo..        ",
"      ..OOXXOO++oooooo..        ",
"      ..OOXXOO++oooooo..        ",
"      ..OOXXOO++oooooo..        ",
"      ..OOXXOO++oooooo..        ",
"      ..OOXXOO++oooooo..        ",
"      ..OOOOXXOOoooooo..        ",
"      ..OOOOXXOOoooooo..        ",
"        ..OOOOOOoooo..          ",
"        ..OOOOOOoooo..          ",
"          ..oooooo..            ",
"          ..oooooo..            ",
"            ......              ",
"            ......              ",
"                                ",
"                                ",
"                                ",
"                                "
};
