/* XPM */
static char *e30b3ed1b55346c1b00c1562a212c942B5GUZNNBInVEHgBx[] = {
/* columns rows colors chars-per-pixel */
"32 32 6 1 ",
"  c None",
". c black",
"X c #F76A22",
"o c #F77622",
"O c #FEAE34",
"+ c #FEE761",
/* pixels */
"                                ",
"                                ",
"                                ",
"                                ",
"          ..........            ",
"          ..........            ",
"        ..++++++oooo..          ",
"        ..++++++oooo..          ",
"      ..OOOOOOOO++oooo..        ",
"      ..OOOOOOOO++oooo..        ",
"    ..OOOO++++OOOO++oooo..      ",
"    ..OOOO++++OOOO++oooo..      ",
"    ..OOXXOOOO++OO++oooo..      ",
"    ..OOXXOOOO++OO++oooo..      ",
"    ..OOXXOOOO++OO++oooo..      ",
"    ..OOXXOOOO++OO++oooo..      ",
"    ..OOXXOOOO++OO++oooo..      ",
"    ..OOXXOOOO++OO++oooo..      ",
"    ..OOXXOOOO++OO++oooo..      ",
"    ..OOXXOOOO++OO++oooo..      ",
"    ..OOOOXXXXOOOO++oooo..      ",
"    ..OOOOXXXXOOOO++oooo..      ",
"      ..OOOOOOOO++oooo..        ",
"      ..OOOOOOOO++oooo..        ",
"        ..oooooooooo..          ",
"        ..oooooooooo..          ",
"          ..........            ",
"          ..........            ",
"                                ",
"                                ",
"                                ",
"                                "
};
