/* XPM */
static char *_159446bdebc49baf0ddd88cc6b824b1HlrnT3JnMNAIT5GB[] = {
/* columns rows colors chars-per-pixel */
"32 32 6 1 ",
"  c None",
". c black",
"X c #F76A22",
"o c #F77622",
"O c #FEAE34",
"+ c #FEE761",
/* pixels */
"                                ",
"                                ",
"                                ",
"                                ",
"            ..........          ",
"            ..........          ",
"          ..++++++++oo..        ",
"          ..++++++++oo..        ",
"        ..OOOOOOOOOO++oo..      ",
"        ..OOOOOOOOOO++oo..      ",
"      ..OOOO++++++OOOO++oo..    ",
"      ..OOOO++++++OOOO++oo..    ",
"      ..OOXXOOOOOO++OO++oo..    ",
"      ..OOXXOOOOOO++OO++oo..    ",
"      ..OOXXOOOOOO++OO++oo..    ",
"      ..OOXXOOOOOO++OO++oo..    ",
"      ..OOXXOOOOOO++OO++oo..    ",
"      ..OOXXOOOOOO++OO++oo..    ",
"      ..OOXXOOOOOO++OO++oo..    ",
"      ..OOXXOOOOOO++OO++oo..    ",
"      ..OOOOXXXXXXOOOO++oo..    ",
"      ..OOOOXXXXXXOOOO++oo..    ",
"        ..OOOOOOOOOO++oo..      ",
"        ..OOOOOOOOOO++oo..      ",
"          ..oooooooooo..        ",
"          ..oooooooooo..        ",
"            ..........          ",
"            ..........          ",
"                                ",
"                                ",
"                                ",
"                                "
};
