/* XPM */
static char *_653a224ac604dfedebe2691247224a9ixrufHiPMpuB40kZ[] = {
/* columns rows colors chars-per-pixel */
"32 32 6 1 ",
"  c None",
". c black",
"X c #F76A22",
"o c #F77622",
"O c #FEAE34",
"+ c #FEE761",
/* pixels */
"                                ",
"                                ",
"                                ",
"                                ",
"              ....              ",
"              ....              ",
"            ..++oo..            ",
"            ..++oo..            ",
"          ..++OOoooo..          ",
"          ..++OOoooo..          ",
"        ..++OO++oooooo..        ",
"        ..++OO++oooooo..        ",
"        ..OOXX++oooooo..        ",
"        ..OOXX++oooooo..        ",
"        ..OOXX++oooooo..        ",
"        ..OOXX++oooooo..        ",
"        ..OOXX++oooooo..        ",
"        ..OOXX++oooooo..        ",
"        ..OOXX++oooooo..        ",
"        ..OOXX++oooooo..        ",
"        ..OOOOXXoooooo..        ",
"        ..OOOOXXoooooo..        ",
"          ..OOOOoooo..          ",
"          ..OOOOoooo..          ",
"            ..oooo..            ",
"            ..oooo..            ",
"              ....              ",
"              ....              ",
"                                ",
"                                ",
"                                ",
"                                "
};
