/* XPM */
static char *b9a76914a4104cdca017a3b5ac8f44db8HphV4LYUqO1w3Jz[] = {
/* columns rows colors chars-per-pixel */
"32 32 7 1 ",
"  c None",
". c #322B28",
"X c #332B28",
"o c #71413B",
"O c #BB7547",
"+ c #DBA463",
"@ c #F4D29C",
/* pixels */
"                                ",
"              ..                ",
"             .@@.               ",
"            .++@@.              ",
"           .@+@++@.             ",
"          .+@+@++++.            ",
"         .+@++@+O+O+.           ",
"        .+@O++@@+++O+.          ",
"        .OO++@@@+O+O+.          ",
"        .+O++@@@+O++..          ",
"        ....O@@@++O.o.          ",
"        ..o...O.....o.          ",
"..........oo.oOO..OO............",
"++@@++@+@.OO.OOO..OO.++@@++@@@++",
"ooooooooo.OOo+ooO.OO.ooooOOOoooo",
"OOooOOOOO.o+o+.oO.OO.OOOOoooOOoo",
"ooOOoo.....+o+ooOOOoO....ooooooo",
".........O.+o+.oO+OoO...........",
"        .Oo+++.oO+OoO.          ",
"        .O..OO..OO+oo.          ",
"        .O.oO+o.oO+oo.          ",
"        .o.oO+O.oO+oo.          ",
".........o.oo++.oO+.o...........",
"+++@++@++..ooO+.oO+..++@@@++++++",
"ooooOOOOO.o.oO+..Oo.ooooooooOOoo",
"OOOOOoooo.o.oOo..oo.OOOOOOOOoooo",
"oooooo......oooo.o......oooooooo",
"............oooo.o.o............",
"         ...ooo..o.o.           ",
"         ....o.......           ",
"          .XX..X....            ",
"                                "
};
