/* XPM */
static char *_3fca5bebf0d48c8f2fe5951ab3f4c0aUR9IPQCfVCIWPl0S[] = {
/* columns rows colors chars-per-pixel */
"32 32 16 1 ",
"  c None",
". c #261F1B",
"X c #261F1C",
"o c #2D2724",
"O c #322B28",
"+ c #332B28",
"@ c #64342F",
"# c #633A35",
"$ c #71413B",
"% c #A3673F",
"& c #AD683A",
"* c #BB7547",
"= c #BF8F57",
"- c #CD9756",
"; c #DBA463",
": c #F4D29C",
/* pixels */
"                                ",
"              OO                ",
"             O::O               ",
"            O;;::O              ",
"           O:;:;;:O             ",
"          O;:;:;;;;o            ",
"         O;:;;:;*;%=X           ",
"        O;:*;;::;==*;O          ",
"        O**;;:::;%=%=O          ",
"        O;*;;:::;*=;OO          ",
"        OOOO*:::;=&OOX          ",
"        OO$OOO*ooXXXXX          ",
"OOOOOOOOOO$$O#%*oo%%oo          ",
";;::;;:;:O**O*%%oo%%oo          ",
"$$$$$$$$$O**$;$$*o%%oX          ",
"**$$*****O$;$;O$*O%%&X          ",
"$$**$$OOOOO;$;$$*%%$&O          ",
"OOOOOOOOO*O;$;O$*=&@*O          ",
"        O*$;;;o#%;&$*O          ",
"        O*OO**oo*%;$$O          ",
"        O*O$*-#o#*;$$O          ",
"        O$O$*;*o$*;$$X          ",
"OOOOOOOOOOO$$;-O$*;O@X          ",
";;;:;;:;;OO$#%;O$&-o#X          ",
"$$$$*****O$O#*;XX&#o@X          ",
"*****$$$$O$o$&&XX##o@X          ",
"$$$$$$OOOOoo#%%#o#oXOO          ",
"OOOOOOOOOOOX$%$#o#o@OO          ",
"         OOO$$$oo#X$O           ",
"         OOOO$ooXXXOO           ",
"          O++oo.XOOX            ",
"                                "
};
