/* XPM */
static char *_5325b21dd0f47918e285f006125d066vKmeGO4dbbHhYptD[] = {
/* columns rows colors chars-per-pixel */
"32 32 7 1 ",
"  c None",
". c #322B28",
"X c #332B28",
"o c #71413B",
"O c #BB7547",
"+ c #DBA463",
"@ c #F4D29C",
/* pixels */
"                                ",
"              ..                ",
"             .@@.               ",
"            .++@@.              ",
"           .@+@++@.             ",
"          .+@+@++++.            ",
"         .+@++@+O+O+.           ",
"        .+@O++@@+++O+.          ",
"        .OO++@@@+O+O+.          ",
"        .+O++@@@+O++..          ",
"        ....O@@@++O.o.          ",
"        .oo...O.....o.          ",
"        .ooo.oOO..OO............",
"        .oOO.OOO..OO.++@@++@@@++",
"        ..OOo+ooO.OO.ooooOOOoooo",
"        ..o+o+.oO.OO.OOOOoooOOoo",
"        .O.+o+ooOOOo.....ooooooo",
"        .O.+o+.oO+OoO...........",
"        .Oo+++.oO+OoO.          ",
"        .O..OO..OO+oo.          ",
"        .O.oO+o.oO+oo.          ",
"        .o.oO+O.oO+oo.          ",
"        .o.oo++.oO+.............",
"        .o.ooO+.oO+..++@@@++++++",
"        .oo.oO+..Oo.ooooooooOOoo",
"        .oo.oOO..oo.OOOOOOOOoooo",
"        .oo.oOOo.o......oooooooo",
"        ..o.oOoo.o.o............",
"         ...ooo..o.o.           ",
"         ....o.......           ",
"          .XX..X....            ",
"                                "
};
