/* XPM */
static char *_94f41382cdb4dd9955888ed3dc38a83IDCEhDKWMipszW06[] = {
/* columns rows colors chars-per-pixel */
"32 32 9 1 ",
"  c None",
". c #261F1C",
"X c #2D2724",
"o c #322B28",
"O c #332B28",
"+ c #71413B",
"@ c #BB7547",
"# c #DBA463",
"$ c #F4D29C",
/* pixels */
"             o@@o               ",
"             oooo               ",
"             o$$o               ",
"            o##$$o              ",
"           o$#$##$o             ",
"          o#$#$####o            ",
"         o#$##$#@#@#o           ",
"        o#$@##$$###@#o          ",
"        o@@##$$$#@#@#o          ",
"        o#@##$$$#@##oo          ",
"        oooo@$$$##@ooo          ",
"        oo+ooo@ooooooo          ",
"        oo++o+@@oo@@oo          ",
"        oo@@o@@@oo@@oo          ",
"        oo@@+#++@o@@oo          ",
"        oo+#+#o+@o@@@o          ",
"        o@o#+#++@@@+@o          ",
"        o@o#+#o+@#@+@o          ",
"        o@+###o+@#@+@o          ",
"        o@oo@@oo@@#++o          ",
"        o@o+@#+o+@#++o          ",
"        o+o+@#@o+@#++o          ",
"        X+o++##o+@#o+o          ",
"        X+o++@#o+@#o+o          ",
"        X++o+@#oo@+o+o          ",
"        oo+o+@+oo++o+o          ",
"        Xooo+++oo+oooo          ",
"        oXoo+++oo+oooo          ",
"         oXo+++oo+o+o           ",
"         ..XX+ooooooo           ",
"          XOOooOoooo            ",
"                                "
};
