/* XPM */
static char *_89eddca3a6e476ad4542912d5071f732yKV3bGd5sZeTQ1Q[] = {
/* columns rows colors chars-per-pixel */
"32 32 8 1 ",
"  c None",
". c #322A28",
"X c #322B28",
"o c #332B28",
"O c #71413B",
"+ c #BB7547",
"@ c #DBA463",
"# c #F4D29C",
/* pixels */
"             X++X               ",
"             XXXX               ",
"             X##X               ",
"            X@@##X              ",
"           X#@#@@#X             ",
"          X@#@#@@@@X            ",
"         X@#@@#@+@+@X           ",
"        X@#+@@##@@@+@X          ",
"        X++@@###@+@+@X          ",
"        X@+@@###@+@@XX          ",
"        XXXX+###@@+XXX          ",
"        XXOXXX+XXXXXXX          ",
"XXXXXXXXXXOOXO++XX++XX          ",
"@@##@@#@#X++X+++XX++XX          ",
"OOOOOOOOOX++O@OO+X++XX          ",
"++OO+++++XO@O@XO+X+++X          ",
"OO++OOXXXXX@O@OO+++O+X          ",
"XXXXXXXXX+X@O@XO+@+O+X          ",
"        X+O@@@XO+@+O+X          ",
"        X+XX++XX++@OOX          ",
"        X+XO+@OXO+@OOX          ",
"        XOXO+@+XO+@OOX          ",
"XXXXXXXXXXXOO@@XO+@XOX          ",
"@@@#@@#@@XXOO+@XO+@XOX          ",
"OOOO+++++XOXO+@XX+OXOX          ",
"+++++OOOOXOXO++XXOOXOX          ",
"OOOOOOXXXXXXO++OXOXXXX          ",
"XXXXXXXXXXXXO+OOXOXXXX          ",
"         XXXOOOXXOXOX           ",
"         XXXXOXXXXXXX           ",
"          XXXXXXXXXX            ",
"                                "
};
