/* XPM */
static char *debe264793af471bb354e4cc1678d215VARGJP15fDYZ6eCk[] = {
/* columns rows colors chars-per-pixel */
"32 32 8 1 ",
"  c None",
". c #322A28",
"X c #322B28",
"o c #332B28",
"O c #71413B",
"+ c #BB7547",
"@ c #DBA463",
"# c #F4D29C",
/* pixels */
"             X++X               ",
"             XXXX               ",
"             X##X               ",
"            X@@##X              ",
"           X#@#@@#X             ",
"          X@#@#@@@@X            ",
"         X@#@@#@+@+@X           ",
"        X@#+@@##@@@+@X          ",
"        X++@@###@+@+@X          ",
"        X@+@@###@+@@XX          ",
"        XXXX+###@@+XOX          ",
"        XXOXXX+XXXXXOX          ",
"        XXOOXO++XX++XXXXXXXXXXXX",
"        XX++X+++XX++X@@##@@###@@",
"        XX++O@OO+X++XOOOO+++OOOO",
"        XXO@O@XO+X++X++++OOO++OO",
"        X+X@O@OO+++OXXXXXOOOOOOO",
"        X+X@O@XO+@+O+XXXXXXXXXXX",
"        X+O@@@XO+@+O+X          ",
"        X+XX++XX++@OOX          ",
"        X+XO+@OXO+@OOX          ",
"        XOXO+@+XO+@OOX          ",
"        XOXOO@@XO+@XXXXXXXXXXXXX",
"        XOXOO+@XO+@XX@@###@@@@@@",
"        XOOXO+@XX+OXOOOOOOOO++OO",
"        XXOXO+OXXOOX++++++++OOOO",
"        XXXXOOOXXOXXXXXXOOOOOOOO",
"        XXXXOOOXXOXOXXXXXXXXXXXX",
"         XXXOOOXXOXOX           ",
"         XXXXOXXXXXXX           ",
"          XooXXXXXXX            ",
"                                "
};
